<?xml version="1.0" standalone="no"?>
<svg xmlns="http://www.w3.org/2000/svg" viewBox="0 0 169 69" width="169" height="69"><g fill="#deab26" color="#deab26" transform="translate(62.204 0) scale(0.44) "><svg width="100.0" height="100.0" x="0.0" y="0.0" viewBox="0 0 100 100"><path d="M95.858,47.887c-0.032-0.083-0.105-0.144-0.194-0.158l-4.437-0.708c-0.085-0.011-0.177,0.021-0.233,0.089  c-0.056,0.069-0.071,0.164-0.039,0.247l0.715,1.871c-2.168,0.97-4.71,0.778-6.699-0.535c-1.777-1.173-3.83-1.857-5.951-2.02  c0.688-2.223,2.268-4.028,4.371-5.013l0.625,1.857c0.029,0.085,0.101,0.148,0.188,0.166c0.017,0.003,0.033,0.005,0.05,0.005  c0.071,0,0.14-0.03,0.188-0.084l2.973-3.37c0.059-0.067,0.078-0.161,0.05-0.245c-0.029-0.085-0.101-0.148-0.188-0.166l-4.405-0.889  c-0.086-0.018-0.179,0.013-0.237,0.08c-0.059,0.067-0.078,0.161-0.05,0.245l0.647,1.923c-1.307,0.602-2.42,1.501-3.273,2.614  c-0.872-2.596-0.248-5.475,1.682-7.456c1.154-1.184,2.043-2.627,2.604-4.18l1.773,0.873c0.035,0.018,0.072,0.026,0.11,0.026  c0.049,0,0.098-0.014,0.139-0.042c0.074-0.05,0.116-0.135,0.11-0.225l-0.297-4.483c-0.006-0.089-0.059-0.168-0.139-0.208  c-0.081-0.04-0.176-0.034-0.249,0.017l-3.733,2.5c-0.074,0.049-0.117,0.135-0.11,0.224c0.006,0.089,0.059,0.168,0.139,0.208  l1.808,0.89c-0.536,1.506-1.396,2.905-2.513,4.052c-2.147,2.203-2.797,5.45-1.685,8.309c-0.477,0.723-0.856,1.515-1.105,2.369  c-0.404,1.388-1.297,2.571-2.51,3.353c-0.48-0.092-0.974-0.131-1.473-0.106c-2.366,0.113-4.566-1.28-5.502-3.465  c1.475-0.953,2.623-2.4,3.19-4.161l1.899,0.624c0.025,0.009,0.052,0.013,0.078,0.013c0.061,0,0.12-0.022,0.167-0.063  c0.066-0.06,0.096-0.15,0.078-0.238l-0.92-4.397c-0.019-0.087-0.082-0.158-0.167-0.186c-0.083-0.029-0.178-0.008-0.245,0.051  l-3.35,2.996c-0.066,0.06-0.096,0.15-0.078,0.238c0.019,0.087,0.082,0.158,0.167,0.186l1.896,0.622  c-1.087,3.381-4.497,5.521-8.021,4.996c-2.233-0.329-4.428,0.475-5.927,2.146c-2.045-1.008-4.482-1.033-6.599,0.038l-0.331-0.573  c0.982-2.851,3.75-4.772,6.769-4.648c1.565,0.055,3.012-0.612,3.988-1.788l1.557,1.261c0.045,0.037,0.101,0.056,0.157,0.056  c0.03,0,0.061-0.005,0.09-0.017c0.083-0.032,0.144-0.106,0.157-0.194l0.704-4.438c0.014-0.088-0.021-0.177-0.09-0.233  c-0.069-0.057-0.163-0.072-0.247-0.039l-4.195,1.609c-0.083,0.032-0.144,0.106-0.157,0.194c-0.014,0.088,0.021,0.177,0.09,0.233  l1.547,1.253c-0.882,1.055-2.204,1.66-3.582,1.603c-0.738-0.027-1.459,0.073-2.151,0.258c-0.072-2.031,0.832-3.946,2.477-5.166  c1.425-1.058,2.39-2.531,2.846-4.143c0.731,0.285,1.492,0.432,2.249,0.432c1.708,0,3.384-0.707,4.589-2.027  c1.233-1.352,3.02-2.022,4.828-1.843l-0.501,1.883c-0.023,0.086,0.001,0.178,0.064,0.242c0.048,0.047,0.111,0.073,0.177,0.073  c0.021,0,0.044-0.003,0.065-0.009l4.338-1.169c0.086-0.023,0.153-0.09,0.176-0.177c0.023-0.086-0.001-0.178-0.064-0.242  l-3.182-3.173c-0.063-0.063-0.156-0.088-0.242-0.064c-0.086,0.023-0.153,0.09-0.176,0.177l-0.524,1.97  c-1.286-0.144-2.559,0.11-3.667,0.708c0.188-1.272-0.002-2.56-0.557-3.723c1.572-1.382,3.476-2.34,5.526-2.76  c2.492-0.51,4.56-2.283,5.473-4.646l1.818,0.813c0.032,0.015,0.067,0.022,0.102,0.022c0.052,0,0.104-0.016,0.146-0.047  c0.072-0.053,0.111-0.14,0.103-0.229l-0.465-4.469c-0.01-0.089-0.065-0.166-0.147-0.202c-0.082-0.038-0.178-0.026-0.248,0.025  l-3.638,2.636c-0.072,0.053-0.111,0.14-0.103,0.229c0.01,0.089,0.065,0.166,0.147,0.202l1.829,0.817  c-0.849,2.218-2.783,3.881-5.117,4.359c-2.086,0.427-4.022,1.396-5.638,2.78c-1.084-2.06-1.242-4.453-0.451-6.636l1.754,0.872  c0.035,0.017,0.073,0.026,0.111,0.026c0.049,0,0.097-0.014,0.139-0.042c0.074-0.05,0.116-0.135,0.11-0.224l-0.279-4.484  c-0.006-0.089-0.059-0.168-0.139-0.208c-0.081-0.039-0.175-0.033-0.25,0.016l-3.743,2.486c-0.074,0.05-0.116,0.135-0.11,0.224  c0.005,0.089,0.058,0.168,0.138,0.208l1.817,0.903c-0.498,1.349-0.649,2.772-0.466,4.162c-2.454-1.218-4.047-3.696-4.082-6.461  c-0.021-1.65-0.414-3.298-1.114-4.796l1.87-0.636c0.085-0.029,0.147-0.101,0.165-0.188c0.018-0.088-0.014-0.178-0.08-0.237  l-3.38-2.96c-0.069-0.059-0.165-0.077-0.245-0.049c-0.085,0.029-0.147,0.101-0.165,0.188l-0.873,4.407  c-0.018,0.087,0.014,0.178,0.08,0.236c0.047,0.041,0.105,0.062,0.165,0.062c0.027,0,0.055-0.004,0.08-0.013l1.909-0.649  c0.686,1.448,1.067,3.045,1.088,4.642c0.038,3.076,1.875,5.831,4.684,7.066c0.174,0.849,0.465,1.678,0.893,2.458  c0.696,1.268,0.902,2.738,0.596,4.149c-0.402,0.273-0.778,0.593-1.114,0.961c-1.611,1.766-4.135,2.325-6.342,1.441  c0.369-1.716,0.159-3.552-0.685-5.198l1.784-0.902c0.079-0.041,0.132-0.12,0.137-0.209c0.005-0.089-0.038-0.174-0.113-0.223  l-3.762-2.459c-0.073-0.048-0.169-0.054-0.25-0.014c-0.079,0.041-0.132,0.12-0.137,0.209l-0.248,4.487  c-0.005,0.089,0.038,0.174,0.113,0.223c0.041,0.027,0.089,0.041,0.137,0.041c0.038,0,0.077-0.009,0.113-0.027l1.779-0.9  c1.62,3.158,0.729,7.076-2.141,9.205c-1.813,1.346-2.8,3.474-2.673,5.72c-1.989,0.684-3.635,2.197-4.453,4.196l-0.361-0.626  c-0.089-0.154-0.344-0.154-0.433,0l-0.243,0.421c-1.031-2.63-0.388-5.608,1.71-7.556c1.13-1.047,1.695-2.558,1.556-4.085  l1.992-0.209c0.089-0.009,0.166-0.065,0.202-0.147s0.026-0.176-0.026-0.249l-2.64-3.635c-0.052-0.072-0.139-0.11-0.229-0.102  c-0.089,0.009-0.166,0.065-0.202,0.147l-1.829,4.104c-0.036,0.082-0.026,0.176,0.026,0.249c0.047,0.065,0.123,0.103,0.202,0.103  c0.009,0,0.018,0,0.026-0.001l1.98-0.208c0.123,1.371-0.386,2.726-1.399,3.666c-0.544,0.505-0.987,1.082-1.347,1.696  c-1.481-1.384-2.193-3.374-1.894-5.395c0.261-1.759-0.101-3.485-0.92-4.949c2.342-1.03,3.83-3.38,3.711-5.956  c-0.084-1.827,0.705-3.565,2.11-4.719l0.977,1.687c0.045,0.077,0.128,0.125,0.217,0.125c0.09,0,0.172-0.048,0.217-0.125l2.24-3.895  c0.045-0.077,0.044-0.172-0.001-0.25c-0.044-0.077-0.127-0.125-0.216-0.125l-4.492,0.007c-0.09,0-0.172,0.048-0.217,0.125  c-0.044,0.077-0.044,0.172,0,0.25l1.021,1.762c-1.008,0.806-1.729,1.886-2.09,3.093c-0.767-1.032-1.812-1.808-3.027-2.239  c0.135-2.089,0.803-4.112,1.957-5.859c1.402-2.124,1.61-4.838,0.583-7.154l1.86-0.711c0.084-0.032,0.144-0.106,0.158-0.194  c0.014-0.088-0.021-0.177-0.09-0.234l-3.488-2.832c-0.07-0.056-0.166-0.072-0.247-0.039c-0.083,0.032-0.144,0.106-0.158,0.194  l-0.708,4.437c-0.014,0.088,0.02,0.177,0.089,0.233c0.045,0.037,0.101,0.056,0.158,0.056c0.03,0,0.061-0.005,0.089-0.017  l1.871-0.715c0.97,2.167,0.778,4.712-0.535,6.701c-1.173,1.777-1.857,3.83-2.02,5.951c-2.223-0.689-4.028-2.268-5.014-4.372  l1.858-0.625c0.085-0.028,0.148-0.1,0.166-0.188c0.018-0.087-0.013-0.178-0.08-0.237l-3.37-2.972  c-0.067-0.06-0.162-0.078-0.245-0.049c-0.085,0.028-0.148,0.1-0.166,0.188l-0.889,4.404c-0.018,0.087,0.013,0.178,0.08,0.237  c0.046,0.041,0.105,0.063,0.166,0.063c0.027,0,0.054-0.004,0.08-0.013l1.923-0.647c0.602,1.306,1.501,2.42,2.614,3.273  c-2.597,0.871-5.476,0.246-7.455-1.682c-1.183-1.152-2.625-2.042-4.18-2.604l0.873-1.773c0.04-0.08,0.033-0.175-0.017-0.25  c-0.049-0.074-0.137-0.121-0.224-0.11l-4.483,0.297c-0.089,0.006-0.168,0.059-0.208,0.139c-0.04,0.08-0.033,0.175,0.017,0.25  l2.5,3.734c0.046,0.069,0.125,0.111,0.208,0.111c0.005,0,0.011,0,0.017,0c0.089-0.006,0.168-0.059,0.208-0.139l0.89-1.808  c1.507,0.537,2.906,1.396,4.052,2.513c1.493,1.455,3.465,2.225,5.472,2.225c0.955,0,1.917-0.18,2.839-0.539  c0.722,0.476,1.513,0.855,2.366,1.104c1.389,0.405,2.574,1.298,3.356,2.512c-0.092,0.479-0.132,0.971-0.109,1.469  c0.109,2.388-1.28,4.567-3.465,5.502c-0.953-1.474-2.401-2.624-4.161-3.19l0.624-1.899c0.028-0.085,0.009-0.178-0.051-0.245  c-0.06-0.067-0.15-0.095-0.238-0.078l-4.397,0.92c-0.087,0.018-0.158,0.082-0.186,0.167c-0.028,0.085-0.009,0.178,0.051,0.245  l2.996,3.348c0.048,0.054,0.116,0.083,0.187,0.083c0.017,0,0.034-0.002,0.051-0.005c0.087-0.018,0.158-0.082,0.186-0.167  l0.622-1.896c3.38,1.088,5.52,4.489,4.996,8.023c-0.331,2.23,0.474,4.428,2.146,5.927c-0.966,1.949-1.043,4.254-0.102,6.324  l-0.36,0.624c-2.9-0.964-4.836-3.72-4.722-6.788c0.057-1.54-0.611-3.008-1.788-3.988l1.261-1.557  c0.056-0.069,0.071-0.164,0.039-0.247c-0.032-0.083-0.106-0.144-0.194-0.158l-4.438-0.704c-0.089-0.013-0.178,0.02-0.233,0.09  c-0.056,0.069-0.071,0.164-0.039,0.247l1.609,4.195c0.032,0.083,0.106,0.144,0.194,0.158c0.013,0.002,0.026,0.003,0.039,0.003  c0.075,0,0.146-0.034,0.194-0.093l1.253-1.547c1.055,0.881,1.654,2.199,1.603,3.582c-0.027,0.742,0.073,1.461,0.255,2.152  c-2.028,0.075-3.943-0.832-5.163-2.476c-1.06-1.428-2.536-2.393-4.15-2.848c0.928-2.385,0.317-5.099-1.588-6.835  c-1.351-1.233-2.022-3.021-1.844-4.829l1.884,0.501c0.021,0.005,0.043,0.008,0.064,0.008c0.065,0,0.129-0.026,0.177-0.074  c0.063-0.063,0.087-0.155,0.064-0.241l-1.169-4.338c-0.023-0.086-0.09-0.154-0.177-0.177c-0.087-0.022-0.178,0.002-0.242,0.065  l-3.173,3.182c-0.063,0.063-0.087,0.156-0.064,0.242c0.023,0.086,0.09,0.154,0.177,0.177l1.969,0.524  c-0.144,1.283,0.11,2.556,0.708,3.666c-1.271-0.187-2.561,0.002-3.724,0.557c-1.382-1.572-2.34-3.476-2.759-5.527  c-0.511-2.492-2.283-4.559-4.646-5.471l0.813-1.818c0.037-0.082,0.027-0.176-0.025-0.249c-0.053-0.073-0.142-0.112-0.229-0.102  l-4.469,0.464c-0.089,0.009-0.166,0.065-0.202,0.146c-0.037,0.082-0.027,0.176,0.025,0.249l2.636,3.638  c0.047,0.065,0.123,0.104,0.203,0.104c0.008,0,0.017,0,0.026-0.001c0.089-0.009,0.166-0.065,0.202-0.146l0.817-1.829  c2.218,0.847,3.881,2.782,4.359,5.116c0.427,2.086,1.395,4.022,2.78,5.636c-2.06,1.084-4.452,1.243-6.637,0.454l0.872-1.756  c0.04-0.08,0.034-0.175-0.016-0.25c-0.05-0.075-0.129-0.112-0.224-0.111l-4.484,0.281c-0.089,0.005-0.168,0.058-0.208,0.138  c-0.04,0.08-0.034,0.175,0.016,0.25l2.486,3.743c0.047,0.07,0.125,0.112,0.208,0.112c0.005,0,0.01,0,0.016,0  c0.089-0.005,0.168-0.058,0.208-0.138l0.902-1.815c0.983,0.363,2.007,0.551,3.028,0.551c0.378,0,0.755-0.027,1.129-0.077  c-1.22,2.447-3.695,4.037-6.456,4.073c-1.651,0.021-3.299,0.413-4.796,1.114l-0.637-1.872c-0.029-0.084-0.101-0.147-0.188-0.165  c-0.09-0.019-0.179,0.013-0.237,0.081l-2.96,3.38c-0.059,0.067-0.078,0.161-0.049,0.245s0.101,0.147,0.188,0.165l4.407,0.874  c0.017,0.003,0.033,0.005,0.049,0.005c0.071,0,0.14-0.031,0.188-0.085c0.059-0.067,0.078-0.161,0.049-0.245l-0.649-1.908  c1.445-0.686,3.042-1.067,4.642-1.088c3.078-0.04,5.834-1.879,7.069-4.69c0.847-0.174,1.676-0.46,2.454-0.887  c1.268-0.696,2.738-0.902,4.15-0.596c0.274,0.403,0.593,0.779,0.961,1.115c1.767,1.611,2.325,4.135,1.441,6.34  c-1.716-0.368-3.552-0.157-5.198,0.686l-0.902-1.784c-0.041-0.08-0.12-0.132-0.209-0.137c-0.093-0.014-0.174,0.038-0.223,0.113  l-2.459,3.761c-0.049,0.075-0.054,0.17-0.014,0.25c0.041,0.08,0.12,0.132,0.209,0.137l4.487,0.25c0.004,0,0.009,0,0.014,0  c0.084,0,0.163-0.042,0.209-0.113c0.049-0.075,0.054-0.17,0.014-0.25l-0.9-1.78c3.157-1.621,7.075-0.729,9.205,2.14  c1.27,1.711,3.235,2.693,5.339,2.693c0.124,0,0.249-0.009,0.374-0.016c0.721,2.115,2.377,3.83,4.566,4.592l-0.514,0.891  c-2.629,1.051-5.678,0.372-7.609-1.707c-1.048-1.13-2.56-1.695-4.084-1.556l-0.209-1.991c-0.009-0.089-0.065-0.166-0.147-0.203  c-0.08-0.035-0.175-0.027-0.249,0.026l-3.635,2.641c-0.072,0.052-0.111,0.14-0.102,0.228c0.009,0.089,0.065,0.166,0.147,0.203  l4.104,1.829c0.032,0.014,0.067,0.021,0.102,0.021c0.052,0,0.104-0.016,0.147-0.048c0.072-0.052,0.111-0.14,0.102-0.228  l-0.208-1.981c1.369-0.123,2.725,0.386,3.666,1.399c0.502,0.541,1.077,0.988,1.696,1.348c-1.384,1.481-3.371,2.191-5.395,1.895  c-1.76-0.261-3.486,0.1-4.949,0.919c-1.03-2.34-3.387-3.818-5.956-3.71c-1.822,0.086-3.565-0.706-4.719-2.111l1.687-0.977  c0.077-0.045,0.125-0.127,0.125-0.217s-0.048-0.172-0.125-0.216l-3.895-2.241c-0.077-0.043-0.172-0.044-0.25,0  c-0.077,0.045-0.125,0.127-0.125,0.217l0.007,4.493c0,0.089,0.048,0.172,0.125,0.216c0.039,0.022,0.082,0.033,0.125,0.033  c0.043,0,0.086-0.011,0.125-0.034l1.763-1.021c0.805,1.007,1.887,1.73,3.091,2.093c-1.03,0.767-1.807,1.811-2.237,3.025  c-2.088-0.134-4.111-0.803-5.859-1.957c-2.123-1.4-4.837-1.608-7.154-0.583l-0.711-1.86c-0.032-0.083-0.106-0.144-0.194-0.158  c-0.09-0.016-0.177,0.02-0.234,0.089l-2.832,3.489c-0.056,0.069-0.071,0.163-0.039,0.246c0.032,0.084,0.106,0.144,0.194,0.158  l4.437,0.708c0.013,0.002,0.026,0.003,0.04,0.003c0.075,0,0.146-0.033,0.194-0.093c0.056-0.069,0.071-0.163,0.039-0.246L8.33,50.772  c2.168-0.968,4.712-0.777,6.701,0.535c1.777,1.174,3.83,1.857,5.951,2.02c-0.689,2.224-2.269,4.028-4.372,5.015l-0.625-1.859  c-0.028-0.084-0.1-0.147-0.188-0.165c-0.083-0.016-0.178,0.013-0.237,0.08l-2.972,3.371c-0.059,0.066-0.078,0.16-0.049,0.245  c0.028,0.084,0.1,0.147,0.188,0.165l4.404,0.889c0.016,0.003,0.033,0.005,0.049,0.005c0.071,0,0.14-0.03,0.188-0.085  c0.059-0.066,0.078-0.16,0.049-0.245l-0.647-1.924c1.306-0.601,2.42-1.501,3.273-2.613c0.873,2.596,0.248,5.476-1.682,7.455  c-1.152,1.183-2.041,2.625-2.604,4.18l-1.773-0.873c-0.08-0.038-0.175-0.031-0.25,0.017c-0.074,0.05-0.116,0.136-0.11,0.225  l0.297,4.483c0.006,0.089,0.059,0.168,0.139,0.208c0.035,0.017,0.073,0.025,0.11,0.025c0.049,0,0.097-0.015,0.139-0.042l3.734-2.499  c0.074-0.05,0.116-0.136,0.11-0.225s-0.059-0.168-0.139-0.208l-1.808-0.89c0.538-1.508,1.396-2.907,2.513-4.052  c2.146-2.203,2.795-5.449,1.684-8.309c0.477-0.723,0.857-1.516,1.106-2.369c0.404-1.388,1.297-2.571,2.51-3.353  c0.48,0.092,0.974,0.131,1.472,0.106c2.387-0.105,4.567,1.28,5.502,3.464c-1.474,0.952-2.623,2.4-3.19,4.161l-1.899-0.623  c-0.085-0.029-0.178-0.009-0.245,0.051c-0.067,0.06-0.097,0.15-0.078,0.237l0.92,4.398c0.018,0.088,0.082,0.159,0.167,0.187  c0.026,0.009,0.052,0.013,0.078,0.013c0.061,0,0.12-0.022,0.167-0.063l3.348-2.997c0.067-0.06,0.097-0.15,0.078-0.237  c-0.018-0.088-0.082-0.159-0.167-0.187l-1.896-0.622c1.088-3.38,4.489-5.517,8.023-4.995c2.229,0.326,4.429-0.476,5.929-2.147  c1.021,0.501,2.145,0.771,3.281,0.771c0.721,0,1.446-0.107,2.151-0.322l-0.169,0.293c-0.045,0.077-0.045,0.173,0,0.25  c0.044,0.077,0.127,0.125,0.216,0.125h1.206c-1.146,2.545-3.721,4.166-6.527,4.068c-1.546-0.047-3.009,0.613-3.988,1.789  l-1.556-1.261c-0.069-0.056-0.165-0.07-0.247-0.039c-0.083,0.032-0.144,0.106-0.158,0.194l-0.704,4.438  c-0.014,0.088,0.021,0.177,0.09,0.233c0.045,0.036,0.101,0.056,0.157,0.056c0.03,0,0.061-0.006,0.089-0.017l4.195-1.608  c0.083-0.032,0.144-0.106,0.158-0.194c0.014-0.088-0.021-0.177-0.09-0.233l-1.548-1.254c0.879-1.057,2.184-1.654,3.582-1.604  c0.092,0.003,0.184,0.005,0.276,0.005c0.645,0,1.27-0.101,1.875-0.26c0.073,2.029-0.832,3.943-2.475,5.163  c-1.428,1.06-2.393,2.536-2.848,4.149c-2.385-0.928-5.098-0.315-6.835,1.587c-1.234,1.353-3.024,2.021-4.829,1.846l0.501-1.884  c0.023-0.086-0.002-0.179-0.065-0.241c-0.063-0.063-0.155-0.088-0.242-0.064l-4.338,1.169c-0.086,0.023-0.154,0.091-0.177,0.177  c-0.023,0.087,0.002,0.179,0.065,0.241l3.182,3.172c0.047,0.048,0.111,0.073,0.176,0.073c0.021,0,0.043-0.003,0.065-0.009  c0.086-0.023,0.154-0.091,0.177-0.177l0.525-1.971c0.233,0.026,0.466,0.052,0.698,0.052c1.043,0,2.06-0.266,2.967-0.754  c-0.187,1.271,0.003,2.558,0.557,3.72c-1.572,1.383-3.476,2.341-5.526,2.76c-2.492,0.51-4.558,2.281-5.471,4.646l-1.819-0.813  c-0.081-0.036-0.177-0.025-0.249,0.026c-0.073,0.052-0.111,0.139-0.102,0.228l0.464,4.47c0.009,0.089,0.065,0.166,0.146,0.203  c0.033,0.015,0.067,0.021,0.102,0.021c0.052,0,0.104-0.017,0.146-0.048l3.638-2.637c0.073-0.052,0.111-0.139,0.102-0.228  s-0.065-0.166-0.146-0.203l-1.829-0.817c0.847-2.218,2.782-3.882,5.116-4.358c2.086-0.427,4.021-1.395,5.636-2.78  c1.084,2.059,1.244,4.452,0.454,6.638l-1.756-0.873c-0.08-0.04-0.176-0.035-0.25,0.016c-0.075,0.049-0.117,0.135-0.111,0.224  l0.281,4.484c0.005,0.089,0.058,0.169,0.138,0.208c0.035,0.018,0.073,0.026,0.111,0.026c0.048,0,0.097-0.014,0.138-0.042  l3.743-2.484c0.075-0.049,0.117-0.135,0.111-0.224s-0.058-0.169-0.138-0.208l-1.817-0.903c0.498-1.349,0.649-2.773,0.466-4.163  c2.453,1.219,4.047,3.696,4.083,6.461c0.021,1.651,0.413,3.301,1.114,4.797l-1.872,0.637c-0.084,0.028-0.147,0.1-0.165,0.188  c-0.018,0.088,0.013,0.178,0.081,0.237l3.38,2.961c0.046,0.04,0.105,0.062,0.165,0.062c0.027,0,0.054-0.004,0.081-0.014  c0.084-0.028,0.147-0.101,0.165-0.188l0.874-4.407c0.018-0.088-0.013-0.178-0.081-0.237c-0.067-0.058-0.16-0.079-0.245-0.048  l-1.908,0.648c-0.686-1.445-1.067-3.043-1.088-4.642c-0.04-3.076-1.877-5.831-4.685-7.067c-0.174-0.848-0.465-1.676-0.893-2.455  c-0.697-1.271-0.902-2.741-0.595-4.154c0.402-0.273,0.779-0.59,1.115-0.958c1.611-1.766,4.134-2.325,6.34-1.44  c-0.369,1.716-0.158,3.553,0.686,5.198l-1.784,0.902c-0.08,0.04-0.132,0.12-0.137,0.209s0.038,0.174,0.113,0.223l3.76,2.458  c0.042,0.027,0.089,0.041,0.137,0.041c0.039,0,0.077-0.009,0.113-0.027c0.08-0.04,0.132-0.119,0.137-0.209l0.25-4.486  c0.005-0.089-0.038-0.174-0.113-0.223c-0.076-0.049-0.17-0.056-0.25-0.014l-1.78,0.9c-1.621-3.158-0.729-7.075,2.14-9.204  c1.811-1.345,2.795-3.468,2.673-5.708c1.981-0.673,3.623-2.167,4.452-4.171h0.984c1.119,2.665,0.47,5.748-1.656,7.722  c-1.13,1.05-1.694,2.56-1.556,4.084l-1.991,0.209c-0.089,0.01-0.166,0.065-0.203,0.147c-0.036,0.081-0.026,0.176,0.026,0.248  l2.641,3.636c0.047,0.065,0.123,0.104,0.202,0.104c0.009,0,0.018,0,0.026-0.001c0.089-0.01,0.166-0.065,0.203-0.147l1.829-4.104  c0.037-0.081,0.026-0.176-0.026-0.248c-0.053-0.073-0.148-0.115-0.228-0.103l-1.981,0.208c-0.123-1.368,0.386-2.724,1.399-3.665  c0.542-0.504,0.987-1.08,1.347-1.696c1.482,1.384,2.194,3.373,1.896,5.395c-0.261,1.759,0.1,3.485,0.919,4.948  c-2.342,1.03-3.828,3.382-3.71,5.957c0.083,1.827-0.706,3.565-2.111,4.718l-0.977-1.686c-0.045-0.077-0.127-0.125-0.216-0.125  c0,0,0,0,0,0c-0.089,0-0.172,0.048-0.216,0.125l-2.241,3.894c-0.044,0.078-0.044,0.173,0,0.25c0.044,0.077,0.127,0.125,0.216,0.125  c0,0,0,0,0,0l4.493-0.006c0.089,0,0.172-0.048,0.216-0.125c0.044-0.078,0.044-0.173,0-0.25l-1.021-1.763  c1.009-0.807,1.729-1.887,2.091-3.095c0.767,1.033,1.812,1.81,3.026,2.241c-0.134,2.088-0.803,4.112-1.957,5.859  c-1.401,2.123-1.608,4.837-0.583,7.153l-1.86,0.711c-0.083,0.032-0.144,0.105-0.158,0.194c-0.014,0.088,0.02,0.177,0.089,0.233  l3.489,2.832c0.045,0.036,0.101,0.056,0.157,0.056c0.03,0,0.061-0.006,0.089-0.017c0.084-0.032,0.144-0.105,0.158-0.194l0.708-4.437  c0.014-0.088-0.021-0.177-0.09-0.233c-0.069-0.056-0.165-0.071-0.246-0.039l-1.871,0.715c-0.969-2.166-0.778-4.71,0.535-6.699  c1.174-1.778,1.857-3.83,2.02-5.951c2.223,0.688,4.028,2.267,5.015,4.371l-1.859,0.625c-0.084,0.029-0.147,0.101-0.165,0.188  c-0.018,0.088,0.013,0.179,0.08,0.237l3.371,2.973c0.046,0.041,0.105,0.063,0.165,0.063c0.026,0,0.054-0.004,0.08-0.013  c0.084-0.029,0.147-0.101,0.165-0.188l0.889-4.405c0.018-0.088-0.013-0.179-0.08-0.237c-0.066-0.059-0.159-0.078-0.245-0.05  l-1.923,0.646c-0.602-1.306-1.502-2.42-2.613-3.272c2.596-0.874,5.474-0.248,7.454,1.682c1.185,1.154,2.627,2.043,4.18,2.604  l-0.873,1.773c-0.039,0.08-0.033,0.175,0.017,0.249c0.047,0.07,0.125,0.111,0.208,0.111c0.006,0,0.011,0,0.017-0.001l4.483-0.297  c0.089-0.006,0.168-0.059,0.208-0.139c0.039-0.08,0.033-0.175-0.017-0.249l-2.499-3.733c-0.051-0.075-0.138-0.13-0.225-0.11  c-0.089,0.006-0.168,0.059-0.208,0.139l-0.89,1.808c-1.506-0.536-2.905-1.396-4.052-2.513c-2.203-2.147-5.447-2.796-8.309-1.685  c-0.723-0.477-1.516-0.857-2.369-1.105c-1.389-0.405-2.573-1.299-3.356-2.513c0.091-0.479,0.131-0.971,0.109-1.47  c-0.109-2.388,1.279-4.567,3.464-5.502c0.953,1.474,2.4,2.624,4.161,3.19l-0.623,1.899c-0.028,0.085-0.009,0.179,0.051,0.245  c0.048,0.054,0.116,0.083,0.187,0.083c0.017,0,0.034-0.002,0.051-0.005l4.398-0.92c0.088-0.019,0.159-0.082,0.187-0.167  c0.028-0.085,0.009-0.179-0.051-0.245l-2.997-3.35c-0.059-0.066-0.148-0.093-0.237-0.078c-0.088,0.019-0.159,0.082-0.187,0.167  l-0.622,1.896c-3.38-1.088-5.52-4.489-4.995-8.023c0.331-2.232-0.477-4.433-2.15-5.931c0.899-1.826,1.02-3.969,0.26-5.93h1.221  c0.089,0,0.172-0.048,0.217-0.125c0.044-0.077,0.044-0.173,0-0.25l-0.076-0.132c2.252,1.246,3.664,3.668,3.566,6.28  c-0.058,1.541,0.612,3.009,1.789,3.988l-1.261,1.557c-0.056,0.069-0.071,0.163-0.039,0.247c0.032,0.083,0.106,0.143,0.194,0.157  l4.438,0.704c0.013,0.002,0.026,0.003,0.039,0.003c0.075,0,0.146-0.033,0.194-0.093c0.056-0.069,0.071-0.163,0.039-0.247  l-1.608-4.195c-0.032-0.083-0.106-0.143-0.194-0.157c-0.084-0.012-0.177,0.021-0.233,0.09l-1.254,1.548  c-1.056-0.882-1.655-2.199-1.604-3.582c0.027-0.737-0.063-1.46-0.247-2.151c2.027-0.067,3.937,0.833,5.155,2.476  c1.06,1.428,2.538,2.387,4.152,2.842c-0.933,2.384-0.321,5.102,1.585,6.842c1.353,1.232,2.023,3.021,1.845,4.829l-1.884-0.502  c-0.086-0.024-0.179,0.001-0.241,0.064c-0.063,0.063-0.088,0.155-0.064,0.242l1.169,4.338c0.023,0.086,0.091,0.153,0.177,0.176  c0.021,0.006,0.043,0.009,0.064,0.009c0.065,0,0.13-0.025,0.177-0.073l3.172-3.182c0.063-0.063,0.088-0.155,0.064-0.242  c-0.023-0.086-0.091-0.153-0.177-0.176L69.388,72.6c0.143-1.275-0.106-2.542-0.697-3.646c0.311,0.046,0.621,0.076,0.933,0.076  c0.96,0,1.909-0.226,2.786-0.645c1.379,1.57,2.335,3.471,2.753,5.518c0.509,2.492,2.281,4.559,4.646,5.473l-0.813,1.818  c-0.036,0.081-0.026,0.176,0.026,0.248c0.047,0.065,0.122,0.104,0.202,0.104c0.009,0,0.018,0,0.025-0.001l4.47-0.465  c0.089-0.01,0.166-0.065,0.203-0.147c0.036-0.081,0.026-0.176-0.026-0.248l-2.637-3.638c-0.053-0.072-0.151-0.115-0.228-0.103  c-0.089,0.01-0.166,0.065-0.203,0.147l-0.817,1.828c-2.218-0.848-3.882-2.782-4.358-5.116c-0.427-2.086-1.395-4.021-2.78-5.637  c2.06-1.084,4.452-1.244,6.637-0.452l-0.872,1.754c-0.04,0.08-0.034,0.175,0.016,0.25c0.046,0.069,0.125,0.111,0.208,0.111  c0.005,0,0.011,0,0.016-0.001l4.484-0.279c0.089-0.006,0.169-0.059,0.208-0.139c0.04-0.08,0.034-0.175-0.016-0.25l-2.484-3.743  c-0.048-0.073-0.136-0.12-0.224-0.11c-0.089,0.005-0.169,0.058-0.208,0.138l-0.903,1.817c-1.349-0.497-2.773-0.649-4.163-0.467  c1.219-2.453,3.696-4.046,6.461-4.081c1.65-0.021,3.3-0.414,4.798-1.115l0.636,1.871c0.028,0.085,0.1,0.147,0.188,0.165  c0.017,0.003,0.032,0.005,0.049,0.005c0.071,0,0.14-0.03,0.188-0.085l2.961-3.38c0.059-0.067,0.077-0.161,0.048-0.245  c-0.028-0.085-0.101-0.147-0.188-0.165l-4.407-0.873c-0.087-0.014-0.177,0.013-0.237,0.08c-0.059,0.067-0.077,0.161-0.048,0.245  l0.649,1.908c-1.447,0.687-3.045,1.068-4.643,1.089c-3.075,0.038-5.83,1.875-7.066,4.683c-0.848,0.174-1.677,0.465-2.456,0.894  c-1.268,0.695-2.736,0.902-4.151,0.596c-0.273-0.402-0.593-0.778-0.961-1.114c-1.767-1.614-2.325-4.141-1.438-6.348  c0.542,0.117,1.096,0.183,1.653,0.183c1.204,0,2.416-0.289,3.541-0.865l0.904,1.788c0.04,0.079,0.12,0.132,0.209,0.137  c0.005,0,0.009,0,0.014,0c0.084,0,0.163-0.042,0.209-0.113l2.458-3.762c0.049-0.075,0.055-0.17,0.014-0.25  c-0.04-0.079-0.12-0.132-0.209-0.137l-4.486-0.248c-0.087,0.004-0.174,0.038-0.223,0.113s-0.055,0.17-0.014,0.25l0.9,1.78  c-3.159,1.621-7.075,0.727-9.204-2.142c-1.347-1.813-3.471-2.802-5.721-2.674c-0.67-1.96-2.135-3.602-4.108-4.436l-0.464-0.802  c2.732-1.369,6.041-0.797,8.136,1.458c0.945,1.019,2.266,1.585,3.635,1.585c0.149,0,0.299-0.019,0.449-0.032l0.209,1.995  c0.01,0.089,0.065,0.166,0.147,0.202c0.032,0.015,0.067,0.021,0.102,0.021c0.052,0,0.104-0.017,0.146-0.048l3.636-2.64  c0.072-0.053,0.111-0.14,0.103-0.229c-0.01-0.089-0.065-0.166-0.147-0.202l-4.104-1.829c-0.081-0.037-0.178-0.026-0.248,0.026  c-0.072,0.053-0.111,0.14-0.103,0.229l0.208,1.98c-1.366,0.119-2.726-0.387-3.665-1.399c-0.506-0.545-1.086-0.981-1.702-1.341  c1.386-1.486,3.384-2.2,5.4-1.9c1.76,0.259,3.485-0.102,4.948-0.92c1.028,2.341,3.354,3.813,5.957,3.711  c1.819-0.073,3.565,0.706,4.718,2.11l-1.686,0.977c-0.077,0.045-0.125,0.128-0.125,0.217c0,0.09,0.048,0.172,0.125,0.217l3.894,2.24  c0.039,0.022,0.082,0.033,0.125,0.033s0.087-0.012,0.125-0.033c0.077-0.045,0.125-0.128,0.125-0.217l-0.006-4.492  c0-0.09-0.048-0.172-0.125-0.217c-0.078-0.045-0.174-0.045-0.25,0l-1.763,1.021c-0.806-1.008-1.887-1.73-3.092-2.093  c1.031-0.767,1.808-1.812,2.238-3.025c2.089,0.135,4.112,0.803,5.859,1.956c1.239,0.819,2.682,1.234,4.129,1.234  c1.031,0,2.062-0.222,3.025-0.648l0.71,1.858c0.032,0.084,0.105,0.144,0.194,0.158c0.013,0.002,0.026,0.003,0.039,0.003  c0.074,0,0.146-0.033,0.194-0.093l2.832-3.488C95.875,48.064,95.891,47.97,95.858,47.887z M86.752,40.227l-2.4,2.72l-1.156-3.438  L86.752,40.227z M85.609,28.774l0.239,3.619l-3.253-1.602L85.609,28.774z M73.099,38.754l0.743,3.549l-3.447-1.131L73.099,38.754z   M63.705,39.321l-0.568,3.583l-2.818-2.284L63.705,39.321z M73.495,29.191l2.568,2.561l-3.502,0.944L73.495,29.191z M80.626,16.764  l0.375,3.608l-3.312-1.48L80.626,16.764z M69.076,17.103l0.227,3.62l-3.248-1.613L69.076,17.103z M60.171,9.812l2.729,2.39  l-3.434,1.168L60.171,9.812z M58.38,25.714l3.037,1.985l-3.237,1.637L58.38,25.714z M52.139,32.758l2.131,2.935l-1.813,0.19l0,0l0,0  l-1.794,0.188L52.139,32.758z M55.526,18.667l-1.809,3.144L51.9,18.673L55.526,18.667z M48.155,4.842l2.816,2.286l-3.388,1.295  L48.155,4.842z M40.227,13.25l2.72,2.398l-3.438,1.157L40.227,13.25z M30.792,17.405l-2.018-3.015l3.619-0.24L30.792,17.405z   M41.172,29.605l-2.418-2.703l3.549-0.743L41.172,29.605z M40.62,39.683l-1.299-3.387l3.583,0.568L40.62,39.683z M31.752,23.936  l0.944,3.502l-3.505-0.934L31.752,23.936z M18.892,22.311l-2.128-2.937l3.608-0.375L18.892,22.311z M19.109,33.945l-2.007-3.021  l3.62-0.227L19.109,33.945z M9.812,39.829l2.39-2.729l1.168,3.434L9.812,39.829z M25.714,41.62l1.985-3.036l0.823,1.627v0  c0,0,0,0,0,0l0.813,1.61L25.714,41.62z M32.758,47.862l2.935-2.132l0.19,1.813l0,0l0,0l0.188,1.794L32.758,47.862z M18.667,44.474  l3.144,1.809l-3.138,1.818L18.667,44.474z M4.842,51.846l2.286-2.816l1.295,3.388L4.842,51.846z M13.25,59.774l2.399-2.722  l1.157,3.438L13.25,59.774z M14.391,71.227l-0.24-3.62l3.254,1.603L14.391,71.227z M26.902,61.247l-0.743-3.55l3.446,1.131  L26.902,61.247z M36.296,60.68l0.568-3.582l2.819,2.284L36.296,60.68z M26.505,70.809l-2.568-2.561l3.502-0.943L26.505,70.809z   M19.374,83.237l-0.375-3.608l3.312,1.479L19.374,83.237z M30.924,82.897l-0.227-3.62l1.643,0.816l0,0l0,0l1.605,0.798  L30.924,82.897z M39.829,90.188l-2.729-2.39l3.434-1.168L39.829,90.188z M41.62,74.285l-3.036-1.984l1.625-0.821  c0-0.001,0.001-0.001,0.002-0.001s0-0.001,0.001-0.001l1.609-0.813L41.62,74.285z M47.862,67.242l-2.132-2.936l3.608-0.378  L47.862,67.242z M44.474,81.332l1.809-3.143l1.818,3.139L44.474,81.332z M51.846,95.158l-2.816-2.286l3.388-1.296L51.846,95.158z   M59.774,86.752l-2.722-2.4l3.438-1.156L59.774,86.752z M69.209,82.596l2.018,3.014l-3.619,0.239L69.209,82.596z M58.828,70.395  l2.42,2.704l-3.552,0.743L58.828,70.395z M59.382,60.318l1.298,3.387l-3.582-0.568L59.382,60.318z M68.248,76.063l-0.943-3.502  l3.504,0.934L68.248,76.063z M81.108,77.689l2.129,2.937l-3.608,0.375L81.108,77.689z M80.892,66.055l2.006,3.021l-3.62,0.227  L80.892,66.055z M90.188,60.171l-2.39,2.729l-1.168-3.434L90.188,60.171z M74.285,58.38l-1.984,3.037l-0.822-1.626V59.79l0,0  l-0.814-1.61L74.285,58.38z M48.141,51.34l1.813-3.142l1.814,3.142H48.141z M67.242,52.139l-2.936,2.131l-0.378-3.607L67.242,52.139  z M81.332,55.526l-3.143-1.809l3.139-1.817L81.332,55.526z M92.872,50.971l-1.296-3.388l3.582,0.572L92.872,50.971z"></path></svg></g><path fill="#0f1c93" fill-rule="nonzero" d="M1.68 11.16L1.68 15.96L0 15.96L0 0.36L3.62 0.36Q5.50 0.36 6.47 1.25Q7.44 2.14 7.44 3.72L7.44 3.72L7.44 7.80Q7.44 9.41 6.48 10.28Q5.52 11.16 3.62 11.16L3.62 11.16L1.68 11.16ZM5.76 7.80L5.76 7.80L5.76 3.72Q5.76 2.81 5.21 2.30Q4.66 1.80 3.62 1.80L3.62 1.80L1.68 1.80L1.68 9.72L3.62 9.72Q5.76 9.72 5.76 7.80ZM18.72 3.36L18.72 15.96L18 15.96L17.38 14.42Q16.87 15.29 16.06 15.80Q15.24 16.32 14.26 16.32L14.26 16.32Q10.80 16.32 10.80 12.96L10.80 12.96L10.80 10.56Q10.80 7.20 14.26 7.20L14.26 7.20L17.04 7.20L17.04 3.26Q17.04 2.40 16.49 1.92Q15.94 1.44 14.86 1.44L14.86 1.44Q12.72 1.44 12.72 3.26L12.72 3.26L12.72 4.68L11.04 4.68L11.04 3.36Q11.04 1.75 11.99 0.88Q12.94 0 14.86 0Q16.78 0 17.75 0.88Q18.72 1.75 18.72 3.36L18.72 3.36ZM17.04 12.55L17.04 8.64L14.26 8.64Q13.25 8.64 12.86 9.14Q12.48 9.65 12.48 10.56L12.48 10.56L12.48 12.96Q12.48 13.87 12.86 14.38Q13.25 14.88 14.26 14.88Q15.26 14.88 16.13 14.10Q16.99 13.32 17.04 12.55L17.04 12.55ZM24.96 4.99L24.96 15.96L23.28 15.96L23.28 0.36L24.00 0.36L24.70 2.14Q25.46 0 27.14 0L27.14 0Q30.00 0 30.00 3.12L30.00 3.12L30.00 4.68L28.39 4.68L28.39 3.02Q28.39 1.44 27.07 1.44L27.07 1.44Q26.28 1.44 25.62 2.35Q24.96 3.26 24.96 4.99L24.96 4.99ZM32.52 13.20L32.52 0.36L37.80 0.36L37.80 1.80L34.20 1.80L34.20 13.30Q34.20 13.97 34.55 14.42Q34.90 14.88 35.53 14.88Q36.17 14.88 36.50 14.44Q36.84 13.99 36.84 13.30L36.84 13.30L36.84 10.44L38.52 10.44L38.52 13.20Q38.52 14.71 37.72 15.52Q36.91 16.32 35.54 16.32Q34.18 16.32 33.35 15.52Q32.52 14.71 32.52 13.20L32.52 13.20ZM43.56 0.36L43.56 15.96L41.88 15.96L41.88 0.36L43.56 0.36ZM54.24 12.96L54.24 12.96L54.24 11.64L55.92 11.64L55.92 12.96Q55.92 14.57 54.94 15.44Q53.95 16.32 51.98 16.32Q50.02 16.32 49.01 15.44Q48.00 14.57 48.00 12.96L48.00 12.96L48.00 3.36Q48.00 1.75 48.98 0.88Q49.97 0 51.94 0Q53.90 0 54.91 0.88Q55.92 1.75 55.92 3.36L55.92 3.36L55.92 5.64L54.24 5.64L54.24 3.36Q54.24 1.44 51.96 1.44Q49.68 1.44 49.68 3.36L49.68 3.36L49.68 12.96Q49.68 14.88 51.96 14.88Q54.24 14.88 54.24 12.96ZM66.19 15.96L60.12 15.96L60.12 0.36L61.80 0.36L61.80 14.52L66.19 14.52L66.19 15.96ZM74.95 12.96L74.95 12.96L74.95 11.64L76.63 11.64L76.63 12.96Q76.63 14.57 75.65 15.44Q74.66 16.32 72.70 16.32Q70.73 16.32 69.72 15.44Q68.71 14.57 68.71 12.96L68.71 12.96L68.71 3.36Q68.71 1.75 69.70 0.88Q70.68 0 72.65 0Q74.62 0 75.62 0.88Q76.63 1.75 76.63 3.36L76.63 3.36L76.63 8.64L70.39 8.64L70.39 12.96Q70.39 14.88 72.67 14.88Q74.95 14.88 74.95 12.96ZM70.39 3.36L70.39 3.36L70.39 7.20L74.95 7.20L74.95 3.36Q74.95 1.44 72.67 1.44Q70.39 1.44 70.39 3.36ZM94.03 3.36L94.03 15.96L93.31 15.96L92.69 14.42Q92.18 15.29 91.37 15.80Q90.55 16.32 89.57 16.32L89.57 16.32Q86.11 16.32 86.11 12.96L86.11 12.96L86.11 10.56Q86.11 7.20 89.57 7.20L89.57 7.20L92.35 7.20L92.35 3.26Q92.35 2.40 91.80 1.92Q91.25 1.44 90.17 1.44L90.17 1.44Q88.03 1.44 88.03 3.26L88.03 3.26L88.03 4.68L86.35 4.68L86.35 3.36Q86.35 1.75 87.30 0.88Q88.25 0 90.17 0Q92.09 0 93.06 0.88Q94.03 1.75 94.03 3.36L94.03 3.36ZM92.35 12.55L92.35 8.64L89.57 8.64Q88.56 8.64 88.18 9.14Q87.79 9.65 87.79 10.56L87.79 10.56L87.79 12.96Q87.79 13.87 88.18 14.38Q88.56 14.88 89.57 14.88Q90.58 14.88 91.44 14.10Q92.30 13.32 92.35 12.55L92.35 12.55ZM100.27 3.84L100.27 15.96L98.59 15.96L98.59 0.36L99.31 0.36L99.91 1.92Q101.06 0 103.10 0L103.10 0Q106.63 0 106.63 3.36L106.63 3.36L106.63 15.96L104.95 15.96L104.95 3.36Q104.95 2.45 104.56 1.94Q104.16 1.44 103.10 1.44Q102.05 1.44 101.16 2.26Q100.27 3.07 100.27 3.84L100.27 3.84ZM118.63 3.36L118.63 15.96L117.91 15.96L117.29 14.42Q116.78 15.29 115.97 15.80Q115.15 16.32 114.17 16.32L114.17 16.32Q110.71 16.32 110.71 12.96L110.71 12.96L110.71 10.56Q110.71 7.20 114.17 7.20L114.17 7.20L116.95 7.20L116.95 3.26Q116.95 2.40 116.40 1.92Q115.85 1.44 114.77 1.44L114.77 1.44Q112.63 1.44 112.63 3.26L112.63 3.26L112.63 4.68L110.95 4.68L110.95 3.36Q110.95 1.75 111.90 0.88Q112.85 0 114.77 0Q116.69 0 117.66 0.88Q118.63 1.75 118.63 3.36L118.63 3.36ZM116.95 12.55L116.95 8.64L114.17 8.64Q113.16 8.64 112.78 9.14Q112.39 9.65 112.39 10.56L112.39 10.56L112.39 12.96Q112.39 13.87 112.78 14.38Q113.16 14.88 114.17 14.88Q115.18 14.88 116.04 14.10Q116.90 13.32 116.95 12.55L116.95 12.55ZM129.26 15.96L123.19 15.96L123.19 0.36L124.87 0.36L124.87 14.52L129.26 14.52L129.26 15.96ZM135.17 11.54L135.17 15.96L133.49 15.96L133.49 11.54Q130.22 11.18 130.22 8.23L130.22 8.23L130.22 0.36L131.90 0.36L131.90 8.23Q131.90 10.15 134.30 10.15Q136.70 10.15 136.70 8.23L136.70 8.23L136.70 0.36L138.38 0.36L138.38 8.23Q138.38 11.18 135.17 11.54L135.17 11.54ZM149.98 12.96L149.98 12.96Q149.98 16.32 145.92 16.32Q141.86 16.32 141.86 12.96L141.86 12.96L141.86 10.92L143.54 10.92L143.54 13.06Q143.54 13.92 144.14 14.40Q144.74 14.88 145.92 14.88Q147.10 14.88 147.70 14.40Q148.30 13.92 148.30 13.09Q148.30 12.26 148.12 11.77Q147.94 11.28 147.38 10.73L147.38 10.73L143.16 6.60Q142.42 5.86 142.14 5.15Q141.86 4.44 141.86 3.36L141.86 3.36Q141.86 1.75 142.86 0.88Q143.86 0 145.87 0L145.87 0Q149.74 0 149.74 3.36L149.74 3.36L149.74 5.40L148.06 5.40L148.06 3.26Q148.06 2.40 147.49 1.92Q146.93 1.44 145.80 1.44Q144.67 1.44 144.11 1.92Q143.54 2.40 143.54 3.24Q143.54 4.08 143.71 4.56Q143.88 5.04 144.46 5.57L144.46 5.57L148.75 9.70Q149.45 10.46 149.71 11.17Q149.98 11.88 149.98 12.96ZM155.98 0.36L155.98 15.96L154.30 15.96L154.30 0.36L155.98 0.36ZM168.41 12.96L168.41 12.96Q168.41 16.32 164.35 16.32Q160.30 16.32 160.30 12.96L160.30 12.96L160.30 10.92L161.98 10.92L161.98 13.06Q161.98 13.92 162.58 14.40Q163.18 14.88 164.35 14.88Q165.53 14.88 166.13 14.40Q166.73 13.92 166.73 13.09Q166.73 12.26 166.55 11.77Q166.37 11.28 165.82 10.73L165.82 10.73L161.59 6.60Q160.85 5.86 160.57 5.15Q160.30 4.44 160.30 3.36L160.30 3.36Q160.30 1.75 161.29 0.88Q162.29 0 164.30 0L164.30 0Q168.17 0 168.17 3.36L168.17 3.36L168.17 5.40L166.49 5.40L166.49 3.26Q166.49 2.40 165.92 1.92Q165.36 1.44 164.23 1.44Q163.10 1.44 162.54 1.92Q161.98 2.40 161.98 3.24Q161.98 4.08 162.14 4.56Q162.31 5.04 162.89 5.57L162.89 5.57L167.18 9.70Q167.88 10.46 168.14 11.17Q168.41 11.88 168.41 12.96Z" transform="translate(0, 52)"></path></svg>